<svg width="377" height="527" viewBox="0 0 377 527" fill="none" xmlns="http://www.w3.org/2000/svg"><path d="M290.994 1H86.0064C68.8821 1 55 14.882 55 32.0064V472.994C55 490.118 68.882 504 86.0064 504H290.994C308.118 504 322 490.118 322 472.994V32.0064C322 14.8821 308.118 1 290.994 1Z" fill="white" stroke="#E6E6E6" stroke-width="2"/><g clip-path="url(#clip0_869_41162)"><rect x="71.9863" y="58" width="233.321" height="415" rx="9.856" fill="white"/><rect x="72" y="58" width="240.156" height="40.9867" fill="white"/><line x1="84.4076" y1="73.1506" x2="94.7424" y2="83.4855" stroke="#AFAFAF" stroke-width="1.24623" stroke-linecap="round" stroke-linejoin="round"/><line x1="84.1494" y1="83.4855" x2="94.4843" y2="73.1506" stroke="#AFAFAF" stroke-width="1.24623" stroke-linecap="round"/><rect x="105.125" y="73.5273" width="192.539" height="10.3516" rx="5.17578" fill="#EEEEEE"/><rect x="104.021" y="73.3701" width="49.9525" height="10.2467" rx="5.12333" fill="#3C4DFF"/><rect x="110" y="76" width="37" height="2" rx="1" fill="white" fill-opacity="0.2"/><rect x="71.998" y="420.641" width="240.36" height="52.5586" fill="white"/><circle cx="292.161" cy="447.234" r="10.849" fill="#CE82FF"/><circle cx="287.593" cy="447.234" r="1.142" fill="white"/><circle cx="292.161" cy="447.234" r="1.142" fill="white"/><circle cx="296.729" cy="447.234" r="1.142" fill="white"/><path d="M246.257 455.281C246.257 454.665 246.757 454.166 247.372 454.166H257.036C257.652 454.166 258.151 454.665 258.151 455.281V455.281C258.151 455.897 257.652 456.396 257.036 456.396H247.372C246.757 456.396 246.257 455.897 246.257 455.281V455.281Z" fill="#FFB100"/><path fill-rule="evenodd" clip-rule="evenodd" d="M246.182 437.445C245.528 437.445 244.999 437.975 244.999 438.629V439.847H242.905C242.293 439.847 241.796 440.343 241.796 440.955V442.649C241.796 444.924 243.522 446.796 245.736 447.028C246.682 448.951 248.461 450.39 250.602 450.876V456.417H253.804V450.876C255.946 450.39 257.725 448.951 258.671 447.028C260.885 446.796 262.61 444.924 262.61 442.649V440.955C262.61 440.343 262.114 439.847 261.502 439.847H259.408V438.629C259.408 437.975 258.878 437.445 258.225 437.445H246.182ZM259.274 445.24C259.362 444.79 259.408 444.325 259.408 443.85V441.448H261.009V442.649C261.009 443.819 260.292 444.821 259.274 445.24ZM244.999 441.448V443.85C244.999 444.325 245.045 444.79 245.133 445.24C244.114 444.821 243.397 443.819 243.397 442.649V441.448H244.999Z" fill="#FFB100"/><path d="M244.999 438.629C244.999 437.975 245.528 437.445 246.182 437.445H258.225C258.878 437.445 259.408 437.975 259.408 438.629V443.85C259.408 447.829 256.183 451.054 252.203 451.054C248.224 451.054 244.999 447.829 244.999 443.85V438.629Z" fill="#FFD300"/><rect x="247.828" y="439.517" width="3.31649" height="7.29627" rx="1.65824" fill="#FFE04F"/><path d="M203.45 439.396C203.45 438.472 204.199 437.724 205.122 437.724H219.614C220.537 437.724 221.286 438.472 221.286 439.396V447.199C221.286 452.124 217.293 456.117 212.368 456.117C207.443 456.117 203.45 452.124 203.45 447.199V439.396Z" fill="#CF9C6D"/><path d="M221.286 441.539V439.396C221.286 438.472 220.537 437.724 219.614 437.724H217.145L204.18 450.738C204.947 452.511 206.274 453.985 207.937 454.939L221.286 441.539Z" fill="#E5AE7C"/><g clip-path="url(#clip1_869_41162)"><line x1="170.077" y1="448.073" x2="174.903" y2="445.286" stroke="#C9C7C7" stroke-width="1.67207"/><rect x="170.937" y="439.531" width="5.0162" height="14.4912" rx="2.5081" transform="rotate(-30 170.937 439.531)" fill="#1CB0F6"/><rect x="162.731" y="444.268" width="5.0162" height="14.4912" rx="2.5081" transform="rotate(-30 162.731 444.268)" fill="#1CB0F6"/><rect x="175.431" y="439.511" width="5.0162" height="10.0324" rx="2.5081" transform="rotate(-30 175.431 439.511)" fill="#1CB0F6"/><rect x="160.467" y="448.15" width="5.0162" height="10.0324" rx="2.5081" transform="rotate(-30 160.467 448.15)" fill="#1CB0F6"/><rect opacity="0.3" x="162.696" y="448.707" width="1.67207" height="2.78678" rx="0.836033" transform="rotate(-30 162.696 448.707)" fill="white"/><rect opacity="0.3" x="178.302" y="440.347" width="1.67207" height="2.78678" rx="0.836033" transform="rotate(-30 178.302 440.347)" fill="white"/><rect opacity="0.3" x="164.926" y="444.806" width="1.67207" height="3.34413" rx="0.836033" transform="rotate(-30 164.926 444.806)" fill="white"/><rect opacity="0.3" x="173.286" y="440.347" width="1.67207" height="3.34413" rx="0.836033" transform="rotate(-30 173.286 440.347)" fill="white"/></g><g clip-path="url(#clip2_869_41162)"><path d="M142.919 451.379C142.919 448.917 140.923 446.92 138.461 446.92H136.789V455.838H138.461C140.923 455.838 142.919 453.842 142.919 451.379Z" fill="#CE82FF"/><path d="M122.854 451.379C122.854 448.917 124.851 446.92 127.313 446.92H128.985V455.838H127.313C124.851 455.838 122.854 453.842 122.854 451.379Z" fill="#CE82FF"/><path fill-rule="evenodd" clip-rule="evenodd" d="M124.567 446.92C124.567 442.326 128.292 438.601 132.887 438.601C137.482 438.601 141.206 442.326 141.206 446.92V450.223H138.46V451.936H141.206H142.919V450.223V446.92C142.919 441.379 138.428 436.888 132.887 436.888C127.346 436.888 122.854 441.379 122.854 446.92V450.223V451.936H124.567H126.756V450.223H124.567V446.92Z" fill="#CE82FF"/><path d="M126.199 448.035C126.199 446.804 127.197 445.806 128.428 445.806C129.659 445.806 130.658 446.804 130.658 448.035V454.723C130.658 455.955 129.659 456.953 128.428 456.953C127.197 456.953 126.199 455.955 126.199 454.723V448.035Z" fill="#9069CD"/><path d="M135.116 448.035C135.116 446.804 136.114 445.806 137.346 445.806C138.577 445.806 139.575 446.804 139.575 448.035V454.723C139.575 455.955 138.577 456.953 137.346 456.953C136.114 456.953 135.116 455.955 135.116 454.723V448.035Z" fill="#9069CD"/></g><g clip-path="url(#clip3_869_41162)"><path d="M100.028 454.344C99.7903 455.593 98.6986 456.496 97.4275 456.496H88.8554C87.5842 456.496 86.4925 455.593 86.2547 454.344L84.3213 444.194L93.0697 437.724L101.962 444.191L100.028 454.344Z" fill="#FFC800"/><path opacity="0.5" fill-rule="evenodd" clip-rule="evenodd" d="M90.894 452.659C90.894 452.186 91.2775 451.802 91.7505 451.802H95.1765C95.6496 451.802 96.033 452.186 96.033 452.659C96.033 453.132 95.6496 453.515 95.1765 453.515H91.7505C91.2775 453.515 90.894 453.132 90.894 452.659Z" fill="#945151"/><path d="M95.9363 447.16C95.9363 448.7 94.6887 449.947 93.1496 449.947C91.6105 449.947 90.3628 448.7 90.3628 447.16C90.3628 445.621 91.6105 444.374 93.1496 444.374C94.6887 444.374 95.9363 445.621 95.9363 447.16Z" fill="#945151"/><path d="M93.3134 436.385C93.6944 436.383 94.08 436.499 94.4115 436.739L94.412 436.74L104.376 443.923C105.205 444.525 105.389 445.686 104.786 446.515C104.184 447.344 103.024 447.528 102.195 446.926L102.194 446.926L93.3067 440.518L84.4193 446.925L84.4186 446.926C83.5895 447.528 82.4295 447.344 81.8272 446.515C81.2248 445.686 81.4086 444.525 82.2378 443.923L82.239 443.922L92.2016 436.74L92.2021 436.739C92.5374 436.496 92.9281 436.381 93.3134 436.385Z" fill="#FF4B4B"/></g><line x1="312.357" y1="420.641" x2="71.9979" y2="420.641" stroke="#E5E5E5" stroke-width="1.28192"/><rect x="156.604" y="430.711" width="32.0479" height="32.0479" rx="5.12767" fill="#DDF4FF" stroke="#84D8FF" stroke-width="1.28192"/><g clip-path="url(#clip4_869_41162)"><line x1="170.078" y1="448.02" x2="174.905" y2="445.234" stroke="#C9C7C7" stroke-width="1.67207"/><rect x="170.938" y="439.478" width="5.0162" height="14.4912" rx="2.5081" transform="rotate(-30 170.938 439.478)" fill="#1CB0F6"/><rect x="162.732" y="444.216" width="5.0162" height="14.4912" rx="2.5081" transform="rotate(-30 162.732 444.216)" fill="#1CB0F6"/><rect x="175.432" y="439.459" width="5.0162" height="10.0324" rx="2.5081" transform="rotate(-30 175.432 439.459)" fill="#1CB0F6"/><rect x="160.468" y="448.097" width="5.0162" height="10.0324" rx="2.5081" transform="rotate(-30 160.468 448.097)" fill="#1CB0F6"/><rect opacity="0.3" x="162.697" y="448.655" width="1.67207" height="2.78678" rx="0.836033" transform="rotate(-30 162.697 448.655)" fill="white"/><rect opacity="0.3" x="178.303" y="440.294" width="1.67207" height="2.78678" rx="0.836033" transform="rotate(-30 178.303 440.294)" fill="white"/><rect opacity="0.3" x="164.927" y="444.753" width="1.67207" height="3.34413" rx="0.836033" transform="rotate(-30 164.927 444.753)" fill="white"/><rect opacity="0.3" x="173.287" y="440.294" width="1.67207" height="3.34413" rx="0.836033" transform="rotate(-30 173.287 440.294)" fill="white"/></g><g filter="url(#filter0_d_869_41162)"><rect x="82" y="257.286" width="103" height="120" rx="16" fill="white" shape-rendering="crispEdges"/><g clip-path="url(#clip5_869_41162)"><path fill-rule="evenodd" clip-rule="evenodd" d="M113 314.079C113 303.374 122.02 294.414 133.5 294.414C144.98 294.414 154 303.374 154 314.079V326.414H147.349V331.414H154H159V326.414V314.079C159 300.457 147.583 289.414 133.5 289.414C119.417 289.414 108 300.457 108 314.079V326.414V331.414H113H118.588V326.414H113V314.079Z" fill="#FFB2B2"/><path d="M138 323.815C138 320.832 140.462 318.415 143.5 318.415C146.538 318.415 149 320.832 149 323.815V340.015C149 342.997 146.538 345.415 143.5 345.415C140.462 345.415 138 342.997 138 340.015V323.815Z" fill="#FF4B4B"/><path d="M129 323.815C129 320.832 126.538 318.415 123.5 318.415C120.462 318.415 118 320.832 118 323.815V340.015C118 342.997 120.462 345.415 123.5 345.415C126.538 345.415 129 342.997 129 340.015V323.815Z" fill="#FF4B4B"/><path d="M150.941 299.257C141.569 289.884 126.373 289.884 117 299.257" stroke="#FF4B4B" stroke-width="7" stroke-linecap="round"/><path d="M149 341.415C154.523 341.415 159 336.938 159 331.415C159 325.892 154.523 321.415 149 321.415V341.415Z" fill="#FFB2B2"/><path d="M118 341.415C112.477 341.415 108 336.938 108 331.415C108 325.892 112.477 321.415 118 321.415V341.415Z" fill="#FFB2B2"/></g><rect x="83" y="258.286" width="101" height="118" rx="15" stroke="#E5E5E5" stroke-width="2" shape-rendering="crispEdges"/></g><g filter="url(#filter1_d_869_41162)"><rect x="193" y="257.286" width="102" height="120" rx="16" fill="white" shape-rendering="crispEdges"/><rect x="232.342" y="342.332" width="23.7131" height="5.15502" rx="2.57751" fill="#00AE85"/><path d="M225.123 309.519C225.123 308.931 225.6 308.454 226.188 308.454H244.197H262.205C262.793 308.454 263.27 308.931 263.27 309.519V315.156C263.27 325.69 254.731 334.229 244.197 334.229V334.229C233.663 334.229 225.123 325.69 225.123 315.156V309.519Z" stroke="#00AE85" stroke-width="5.15502"/><rect x="221" y="305.875" width="46.3952" height="5.15502" rx="2.57751" fill="#00AE85"/><path fill-rule="evenodd" clip-rule="evenodd" d="M232.342 293.092C232.342 289.334 235.388 286.287 239.146 286.287L249.25 286.287C253.008 286.287 256.055 289.334 256.055 293.092V314.537C256.055 318.295 253.008 321.341 249.25 321.341H239.146C235.388 321.341 232.342 318.295 232.342 314.537V293.092Z" fill="#00D2A0"/><path d="M232.342 305.258H256.055V316.083C256.055 322.632 250.747 327.94 244.198 327.94V327.94C237.65 327.94 232.342 322.632 232.342 316.083V305.258Z" fill="#00AE85"/><rect x="230.279" y="303.815" width="27.8371" height="9.27904" rx="2.06201" fill="#6AEFD0"/><rect x="240.59" y="336.187" width="7.21703" height="7.21703" fill="#00AE85"/><rect x="194" y="258.286" width="100" height="118" rx="15" stroke="#E5E5E5" stroke-width="2" shape-rendering="crispEdges"/></g><g filter="url(#filter2_d_869_41162)"><rect x="193" y="120.863" width="102" height="120" rx="16" fill="white" shape-rendering="crispEdges"/><path fill-rule="evenodd" clip-rule="evenodd" d="M243.347 166.597C242.715 161.863 240.594 153.792 235.983 149.628C235.063 148.797 233.745 149.494 233.685 150.732C233.559 153.316 233.436 156.783 233.32 160.678C232.947 160.65 232.569 160.637 232.188 160.64L222.269 160.721C219.531 160.743 217.328 162.982 217.351 165.721L217.364 167.373L216.947 167.377C213.523 167.405 210.771 170.203 210.799 173.626L211.024 201.26C211.052 204.683 213.848 207.436 217.272 207.408L228.432 207.317C234.759 207.265 236.328 208.921 237.846 210.522C239.057 211.799 240.235 213.041 243.768 213.355C243.941 213.371 244.109 213.362 244.269 213.332C244.379 213.337 244.492 213.332 244.607 213.316C247.269 212.938 248.422 211.86 249.644 210.718C251.385 209.091 253.267 207.333 259.849 207.279L271.009 207.188C274.433 207.16 277.184 204.362 277.156 200.938L276.928 173.087C276.9 169.664 274.102 166.911 270.679 166.939L270.265 166.942L270.251 165.288C270.229 162.55 267.99 160.347 265.251 160.37L255.333 160.451C250.353 160.491 246.039 163.279 243.816 167.364C243.668 167.103 243.512 166.847 243.347 166.597Z" fill="#EFDEFA"/><path d="M276.925 173.088C276.897 169.665 274.099 166.912 270.675 166.94L258.69 167.038C249.561 167.112 242.22 174.574 242.295 183.703L242.521 211.393C242.53 212.534 243.473 213.477 244.603 213.317C251.057 212.399 248.643 207.371 259.846 207.28C262.961 207.254 267.398 207.218 271.006 207.189C274.429 207.161 277.18 204.363 277.152 200.939L276.925 173.088Z" fill="#CE82FF"/><path d="M210.799 173.627C210.771 170.204 213.524 167.406 216.948 167.378L228.932 167.28C238.062 167.205 245.524 174.546 245.598 183.676L245.824 211.365C245.833 212.506 244.905 213.457 243.769 213.356C235.806 212.648 239.806 207.225 228.433 207.318C225.317 207.343 220.88 207.38 217.272 207.409C213.849 207.437 211.053 204.684 211.025 201.261L210.799 173.627Z" fill="#CE82FF"/><path fill-rule="evenodd" clip-rule="evenodd" d="M242.764 204.455C243.07 204.878 243.57 205.123 244.119 204.989C244.107 204.987 244.096 204.984 244.085 204.981C243.589 204.857 243.159 204.675 242.764 204.455ZM245.461 204.434C246.041 204.099 246.544 203.68 247.077 203.236C248.77 201.827 250.765 200.166 256.477 200.119L265.431 200.046C268.247 200.023 270.51 197.722 270.487 194.906L270.246 165.429C270.223 162.613 267.922 160.349 265.106 160.372L255.698 160.449C250.545 160.491 246.084 163.395 243.813 167.641C244.882 169.563 245.499 171.773 245.518 174.128L245.758 203.466C245.76 203.825 245.65 204.165 245.461 204.434Z" fill="#FFC800"/><path d="M270.25 165.289C270.227 162.55 267.989 160.348 265.25 160.37L255.332 160.451C248.028 160.511 242.155 166.48 242.215 173.784L242.458 203.539C242.465 204.452 243.225 205.219 244.115 205.016C248.026 204.129 247.64 200.191 256.482 200.119C259.021 200.098 262.645 200.068 265.576 200.044C268.315 200.022 270.515 197.784 270.493 195.045L270.25 165.289Z" fill="#EFDEFA"/><path d="M217.352 165.721C217.329 162.983 219.531 160.744 222.27 160.722L232.189 160.641C239.493 160.581 245.462 166.454 245.521 173.758L245.764 203.513C245.772 204.426 245.031 205.198 244.13 205.055C239.516 204.325 240.669 200.248 231.686 200.321C229.147 200.342 225.523 200.372 222.592 200.396C219.853 200.418 217.617 198.216 217.594 195.477L217.352 165.721Z" fill="#EFDEFA"/><path opacity="0.4" fill-rule="evenodd" clip-rule="evenodd" d="M241.312 164.404L241.636 204.093C242.073 204.389 242.561 204.645 243.16 204.833C243.403 204.991 243.693 205.071 244.003 205.036C244.029 205.04 244.054 205.045 244.08 205.049C244.584 205.132 245.039 204.934 245.349 204.586C245.808 204.36 246.208 204.085 246.593 203.783L246.271 164.363C245.297 165.323 244.468 166.428 243.818 167.644C243.148 166.439 242.301 165.348 241.312 164.404Z" fill="#DDA7FF"/><path opacity="0.8" d="M233.733 160.662L238.972 162.926L241.926 198.841C241.926 198.841 242.826 204.748 241.797 204.226C240.769 203.704 239.555 202.169 238.241 201.512C236.926 200.855 235.155 200.534 235.155 200.534L226.078 200.164L225.777 193.462L227.394 160.943L233.733 160.662Z" fill="#DDA7FF"/><path d="M235.984 149.628C240.982 154.142 243.055 163.247 243.476 167.715C243.446 175.459 243.338 193.768 243.15 205.055C242.886 199.375 236.952 191.463 233.332 188.99C232.762 188.601 232.351 187.978 232.364 187.288C232.562 176.543 233.183 159.372 233.672 150.73C233.742 149.493 235.064 148.798 235.984 149.628Z" fill="#EFDEFA"/><rect x="194" y="121.863" width="100" height="118" rx="15" stroke="#E5E5E5" stroke-width="2" shape-rendering="crispEdges"/></g><g filter="url(#filter3_d_869_41162)"><rect x="83" y="120.863" width="102" height="120" rx="16" fill="white" shape-rendering="crispEdges"/><path d="M132.959 213.337C151.468 213.337 166.473 198.332 166.473 179.823C166.473 161.313 151.468 146.308 132.959 146.308C114.449 146.308 99.4444 161.313 99.4444 179.823C99.4444 198.332 114.449 213.337 132.959 213.337Z" fill="#FF9600" stroke="white" stroke-width="6.09353"/><ellipse opacity="0.4" cx="122.6" cy="169.464" rx="10.359" ry="10.359" fill="white"/><path fill-rule="evenodd" clip-rule="evenodd" d="M144.829 165.011C144.09 163.892 142.584 163.583 141.465 164.321C140.346 165.06 140.037 166.566 140.776 167.685V167.685C141.211 168.344 140.632 169.199 139.859 169.041L128.312 166.675C123.94 165.779 119.669 168.597 118.774 172.969L118.206 175.738C117.937 177.051 118.784 178.334 120.097 178.603C121.411 178.873 122.694 178.026 122.963 176.712L123.53 173.943C123.888 172.198 125.592 171.074 127.337 171.431L138.887 173.798C139.656 173.956 139.851 174.965 139.196 175.397V175.397C138.076 176.136 137.768 177.642 138.506 178.761C139.245 179.88 140.751 180.189 141.87 179.45L148.418 175.129C149 174.794 149.44 174.221 149.586 173.512C149.682 173.044 149.636 172.58 149.478 172.164C149.415 171.998 149.333 171.837 149.232 171.683L144.829 165.011ZM127.017 181.558C127.755 182.677 127.447 184.183 126.328 184.921V184.921C125.67 185.355 125.865 186.368 126.637 186.526L138.187 188.893C139.932 189.25 141.636 188.126 141.994 186.381L142.561 183.612C142.83 182.298 144.114 181.451 145.427 181.721C146.741 181.99 147.587 183.273 147.318 184.586L146.751 187.355C145.855 191.727 141.584 194.545 137.212 193.649L125.661 191.282C124.891 191.125 124.314 191.977 124.747 192.633V192.633C125.486 193.753 125.177 195.258 124.058 195.997C122.939 196.735 121.433 196.427 120.695 195.308L116.34 188.709C115.963 188.179 115.798 187.5 115.939 186.812C116.007 186.476 116.142 186.171 116.327 185.907C116.498 185.663 116.717 185.446 116.981 185.271L123.653 180.868C124.773 180.13 126.279 180.438 127.017 181.558Z" fill="white"/><rect x="84" y="121.863" width="100" height="118" rx="15" stroke="#E5E5E5" stroke-width="2" shape-rendering="crispEdges"/></g></g><rect x="72.9863" y="59" width="231.321" height="413" rx="8.856" stroke="#E5E5E5" stroke-width="2"/><path d="M151.636 341.494C170.153 339.909 156.142 319.608 137.625 321.193L87.2898 325.501C68.7727 327.086 58.4152 349.472 76.9323 347.888V347.888L151.636 341.494V341.494Z" fill="#FFB100"/><path fill-rule="evenodd" clip-rule="evenodd" d="M52.0365 328.519C51.9549 327.565 52.662 326.725 53.616 326.644L171.007 316.596C171.961 316.515 172.8 317.222 172.882 318.176C173.973 330.918 164.527 342.131 151.785 343.222L77.0822 349.615C64.3404 350.706 53.127 341.26 52.0365 328.519ZM53.9805 330.092C53.8861 329.526 53.8136 328.952 53.7638 328.371L171.155 318.324C171.204 318.905 171.231 319.483 171.234 320.057C171.294 331.112 162.844 340.535 151.638 341.494L76.9343 347.888C65.728 348.847 55.7996 340.997 53.9805 330.092Z" fill="#FFB100"/><path d="M67.3538 252.452C66.3332 240.527 75.1726 230.033 87.0971 229.013L149.28 223.691C161.204 222.67 171.698 231.51 172.719 243.434L180.739 337.14L75.3738 346.158L67.3538 252.452Z" fill="#FFB100"/><path d="M83.2315 255.006C82.5783 247.375 88.2355 240.658 95.8672 240.005L158.05 234.683C165.682 234.03 172.398 239.687 173.051 247.319L180.116 329.868L90.2967 337.556L83.2315 255.006Z" fill="#FFC6B7"/><path d="M95.044 276.179C95.5135 281.664 91.4474 286.491 85.9621 286.961C80.4769 287.43 75.6496 283.364 75.1801 277.879C74.7107 272.393 78.7768 267.566 84.262 267.097C89.7473 266.627 94.5746 270.693 95.044 276.179Z" fill="#FFC6B7"/><path d="M182.273 268.715C182.742 274.2 178.676 279.027 173.191 279.497C167.705 279.966 162.878 275.9 162.409 270.415C161.939 264.929 166.005 260.102 171.491 259.633C176.976 259.163 181.803 263.229 182.273 268.715Z" fill="#FFC6B7"/><path d="M221.387 267.069C226.157 266.66 230.355 270.195 230.764 274.965L232.412 294.186C232.821 298.956 229.286 303.154 224.516 303.563L205.295 305.211C200.525 305.62 196.327 302.085 195.918 297.315L194.27 278.094C193.861 273.324 197.396 269.126 202.166 268.717L221.387 267.069Z" fill="#FFC6B7"/><path d="M258.992 313.25L227.724 335.064L197.678 291.994L228.946 270.181L258.992 313.25Z" fill="#FFC6B7"/><path fill-rule="evenodd" clip-rule="evenodd" d="M141.75 222.159C142.751 233.845 134.088 244.13 122.402 245.13C114.068 245.843 106.447 241.642 102.398 234.934C100.897 234.135 99.4729 233.129 98.1726 231.921C92.1316 226.307 90.2563 217.722 93.3827 210.72C94.0334 209.263 95.958 208.936 97.1836 210.075L98.5228 211.32C100.935 212.915 102.619 212 103.972 210.749C107.48 206.341 112.724 203.329 118.78 202.811C130.466 201.811 140.75 210.473 141.75 222.159Z" fill="#FFB100"/><path d="M80.1526 254.617C79.5301 247.343 84.9221 240.942 92.196 240.319V240.319C99.47 239.697 105.871 245.089 106.494 252.363L107.122 259.704C107.745 266.978 102.353 273.379 95.0788 274.002V274.002C87.8049 274.624 81.4035 269.232 80.7809 261.958L80.1526 254.617Z" fill="#FFB100"/><path d="M146.092 262.677C145.541 256.238 150.314 250.571 156.753 250.02V250.02C163.192 249.469 168.859 254.242 169.41 260.681L169.965 267.159C170.516 273.598 165.742 279.265 159.303 279.816V279.816C152.864 280.367 147.197 275.594 146.646 269.155L146.092 262.677Z" fill="white"/><path d="M118.455 265.042C117.904 258.603 122.677 252.936 129.116 252.385V252.385C135.556 251.834 141.222 256.607 141.773 263.047L142.328 269.524C142.879 275.963 138.106 281.63 131.666 282.181V282.181C125.227 282.732 119.56 277.959 119.009 271.52L118.455 265.042Z" fill="white"/><path d="M100.228 435.927L121.923 445.803L101.722 490.179C98.9949 496.17 91.9275 498.816 85.9366 496.089C79.9457 493.362 77.2999 486.294 80.0271 480.303L100.228 435.927Z" fill="#FFC6B7"/><path d="M176.186 435.223L152.867 438.332L159.2 488.868C160.051 495.396 166.032 499.997 172.559 499.147C179.087 498.296 183.688 492.315 182.838 485.787L176.186 435.223Z" fill="#FFC6B7"/><path d="M55.2539 512.282C55.2539 508.642 58.2049 505.691 61.8452 505.691H93.978C97.6183 505.691 100.569 508.642 100.569 512.282V512.282C100.569 515.922 97.6183 518.873 93.978 518.873H61.8452C58.205 518.873 55.2539 515.922 55.2539 512.282V512.282Z" fill="#E619DF"/><path d="M161.539 512.282C161.539 508.642 164.49 505.691 168.13 505.691H200.263C203.903 505.691 206.854 508.642 206.854 512.282V512.282C206.854 515.922 203.903 518.873 200.263 518.873H168.13C164.49 518.873 161.539 515.922 161.539 512.282V512.282Z" fill="#E619DF"/><path d="M69.5653 323.556C75.7617 323.221 76.7091 318.303 76.5251 315.801L79.0095 315.667L79.5882 326.382L69.7439 326.862L69.5653 323.556Z" fill="#FFB100"/><path fill-rule="evenodd" clip-rule="evenodd" d="M138.165 328.708C152.161 327.952 172.406 328.948 180.073 329.385L179.448 322.083C183.914 315.164 191.521 310.409 200.374 309.931C204.769 309.694 208.972 310.537 212.725 312.23L243.38 290.845L264.471 321.079C265.237 322.176 265.87 323.325 266.376 324.508C268.149 326.881 269.496 329.634 270.273 332.682C273.448 345.131 265.929 357.797 253.48 360.972L202.257 374.033C202.204 375.712 202.01 377.416 201.665 379.131L196.236 406.125L193.789 418.295C191.941 427.482 185.288 434.729 176.703 437.549L178.178 449.01L154.536 452.053L152.948 439.713L123.985 441.278L116.897 456.849L95.2016 446.973L100.41 435.531C100.002 435.184 99.6042 434.824 99.2179 434.452C96.2259 431.567 93.9115 427.93 92.5924 423.761L88.8484 411.925L78.1437 378.085L17.5887 362.839C5.12981 359.702 -2.42726 347.059 0.709536 334.6C0.87231 333.954 1.06068 333.321 1.2733 332.701C1.5587 331.613 1.94473 330.536 2.43569 329.48L17.9778 296.052L52.5614 312.132L48.7281 320.376C53.2914 316.467 59.1307 313.975 65.5942 313.626C79.0676 312.899 90.8475 321.721 94.3556 334.189L94.4516 334.213C100.084 333.263 122.861 329.534 138.165 328.708Z" fill="url(#paint0_linear_869_41162)"/><path d="M152.473 330.838C152.46 329.677 153.364 328.712 154.523 328.649L160.107 328.348C160.974 328.301 161.786 328.777 162.169 329.557L169.848 345.201C170.532 346.596 169.57 348.236 168.019 348.32L154.94 349.027C153.709 349.093 152.671 348.12 152.656 346.887L152.473 330.838Z" fill="#EBE3E3"/><path d="M146.688 223.912C142.609 224.261 141.642 220.864 141.278 219.155L139.643 219.295L140.395 226.625L146.881 226.177L146.688 223.912Z" fill="#FFB100"/><path d="M121.712 282.815C115.062 278.816 106.42 276.946 100.732 276.563L101.971 291.029L122.266 289.292L121.712 282.815Z" fill="#FFC6B7"/><path d="M153.916 278.65C155.433 280.825 155 284.276 152.644 285.919C150.288 287.562 146.901 286.775 145.384 284.6C143.867 282.424 144.037 273.956 144.215 273.832C144.393 273.708 152.399 276.474 153.916 278.65Z" fill="#EE9583"/><rect x="144.672" y="250.865" width="23.4037" height="29.9048" rx="11.7019" transform="rotate(-4.89187 144.672 250.865)" fill="white"/><rect x="117.035" y="253.231" width="23.4037" height="29.9048" rx="11.7019" transform="rotate(-4.89187 117.035 253.231)" fill="white"/><rect x="125.916" y="259.43" width="10.8351" height="16.9027" rx="5.41753" transform="rotate(-4.89187 125.916 259.43)" fill="#3D3D3D"/><path d="M140.356 282.089C133.707 278.091 125.065 276.22 119.377 275.837L120.615 290.303L140.911 288.566L140.356 282.089Z" fill="#FFC6B7"/><circle cx="125.713" cy="261.623" r="3.90062" transform="rotate(-4.89187 125.713 261.623)" fill="white"/><path fill-rule="evenodd" clip-rule="evenodd" d="M146.343 263.775C148.489 263.591 150.08 261.702 149.896 259.556C149.837 258.856 149.596 258.215 149.224 257.676C149.712 257.479 150.238 257.35 150.79 257.303C153.771 257.048 156.395 259.258 156.65 262.239L157.168 268.284C157.423 271.266 155.213 273.889 152.232 274.144C149.251 274.399 146.627 272.189 146.372 269.208L145.908 263.788C146.051 263.791 146.196 263.787 146.343 263.775Z" fill="#3D3D3D"/><path d="M112.766 242.202L170.23 237.283L171.986 257.806C162.475 257.793 155.498 258.391 142.363 259.515C128.407 260.709 120.644 261.787 114.522 262.724L112.766 242.202Z" fill="#FFC6B7"/><path d="M35.2202 268.053C30.4516 268.475 26.9285 272.683 27.351 277.452L29.0538 296.668C29.4764 301.437 33.6846 304.96 38.4531 304.538L57.6696 302.835C62.4382 302.412 65.9613 298.204 65.5388 293.435L63.836 274.219C63.4134 269.45 59.2052 265.927 54.4366 266.35L35.2202 268.053Z" fill="#FFC6B7"/><path d="M6.47656 320.821L41.0478 336.895L62.714 290.296L28.1427 274.222L6.47656 320.821Z" fill="#FFC6B7"/><path opacity="0.2" fill-rule="evenodd" clip-rule="evenodd" d="M89.2875 413.315L88.848 411.926L88.3281 410.282L196.578 404.422L196.236 406.126L195.951 407.541L89.2875 413.315Z" fill="black"/><path fill-rule="evenodd" clip-rule="evenodd" d="M157.121 346.926L162.437 354.157C164.41 356.84 165.278 360.178 164.862 363.482L159.459 406.431L163.858 406.193L169.162 364.023C169.717 359.617 168.559 355.167 165.929 351.59L160.613 344.359L157.121 346.926Z" fill="#EBE3E3"/><path d="M64.8505 248.52C64.8937 247.202 65.7827 246.063 67.0503 245.698C79.9562 241.985 94.2473 237.677 121.674 235.329C147.048 233.158 151.266 233.78 171.146 234.433C172.666 234.483 173.928 235.648 174.082 237.161L174.746 243.661C174.931 245.464 173.502 247.026 171.691 246.98C155.938 246.58 147.841 244.922 123.088 247.041C97.2812 249.25 85.5211 253.877 68.3799 258.353C66.4349 258.861 64.5615 257.345 64.6273 255.336L64.8505 248.52Z" fill="url(#paint1_linear_869_41162)"/><path fill-rule="evenodd" clip-rule="evenodd" d="M124.192 283.384C128.281 281.133 133.42 282.624 135.671 286.713C135.968 287.252 136.812 288.252 138.101 288.994C139.305 289.687 140.449 289.908 141.47 289.746C146.08 289.015 150.41 292.16 151.141 296.77C151.872 301.38 148.727 305.709 144.117 306.44C133.154 308.178 124.295 301.099 120.863 294.863C118.612 290.774 120.103 285.634 124.192 283.384Z" fill="#A41414"/><path fill-rule="evenodd" clip-rule="evenodd" d="M133.689 284.3C133.401 288.714 129.925 292.375 125.383 292.764C123.364 292.937 121.443 292.437 119.841 291.45C119.59 288.243 121.192 285.035 124.193 283.383C127.334 281.655 131.094 282.133 133.689 284.3Z" fill="white"/><path fill-rule="evenodd" clip-rule="evenodd" d="M144.564 289.825C143.066 291.563 140.914 292.739 138.448 292.95C133.439 293.379 129.032 289.666 128.603 284.658L128.404 282.334C131.335 282.384 134.158 283.959 135.672 286.711C135.969 287.25 136.813 288.25 138.102 288.993C139.306 289.686 140.451 289.906 141.471 289.744C142.531 289.576 143.575 289.613 144.564 289.825Z" fill="white"/><path fill-rule="evenodd" clip-rule="evenodd" d="M150.716 301.045C149.685 303.805 147.237 305.946 144.119 306.441C138.965 307.258 134.276 306.126 130.398 304.05C132.868 300.913 136.58 298.768 140.872 298.4C144.505 298.089 147.946 299.105 150.716 301.045Z" fill="#D22121"/><rect opacity="0.3" width="188.622" height="7.25471" rx="3.62735" transform="matrix(-1 0 0 1 225.932 519.17)" fill="#000437"/><defs><filter id="filter0_d_869_41162" x="82" y="257.286" width="103" height="124" filterUnits="userSpaceOnUse" color-interpolation-filters="sRGB"><feFlood flood-opacity="0" result="BackgroundImageFix"/><feColorMatrix in="SourceAlpha" type="matrix" values="0 0 0 0 0 0 0 0 0 0 0 0 0 0 0 0 0 0 127 0" result="hardAlpha"/><feOffset dy="4"/><feComposite in2="hardAlpha" operator="out"/><feColorMatrix type="matrix" values="0 0 0 0 0.898039 0 0 0 0 0.898039 0 0 0 0 0.898039 0 0 0 1 0"/><feBlend mode="normal" in2="BackgroundImageFix" result="effect1_dropShadow_869_41162"/><feBlend mode="normal" in="SourceGraphic" in2="effect1_dropShadow_869_41162" result="shape"/></filter><filter id="filter1_d_869_41162" x="193" y="257.286" width="102" height="124" filterUnits="userSpaceOnUse" color-interpolation-filters="sRGB"><feFlood flood-opacity="0" result="BackgroundImageFix"/><feColorMatrix in="SourceAlpha" type="matrix" values="0 0 0 0 0 0 0 0 0 0 0 0 0 0 0 0 0 0 127 0" result="hardAlpha"/><feOffset dy="4"/><feComposite in2="hardAlpha" operator="out"/><feColorMatrix type="matrix" values="0 0 0 0 0.898039 0 0 0 0 0.898039 0 0 0 0 0.898039 0 0 0 1 0"/><feBlend mode="normal" in2="BackgroundImageFix" result="effect1_dropShadow_869_41162"/><feBlend mode="normal" in="SourceGraphic" in2="effect1_dropShadow_869_41162" result="shape"/></filter><filter id="filter2_d_869_41162" x="193" y="120.863" width="102" height="124" filterUnits="userSpaceOnUse" color-interpolation-filters="sRGB"><feFlood flood-opacity="0" result="BackgroundImageFix"/><feColorMatrix in="SourceAlpha" type="matrix" values="0 0 0 0 0 0 0 0 0 0 0 0 0 0 0 0 0 0 127 0" result="hardAlpha"/><feOffset dy="4"/><feComposite in2="hardAlpha" operator="out"/><feColorMatrix type="matrix" values="0 0 0 0 0.898039 0 0 0 0 0.898039 0 0 0 0 0.898039 0 0 0 1 0"/><feBlend mode="normal" in2="BackgroundImageFix" result="effect1_dropShadow_869_41162"/><feBlend mode="normal" in="SourceGraphic" in2="effect1_dropShadow_869_41162" result="shape"/></filter><filter id="filter3_d_869_41162" x="83" y="120.863" width="102" height="124" filterUnits="userSpaceOnUse" color-interpolation-filters="sRGB"><feFlood flood-opacity="0" result="BackgroundImageFix"/><feColorMatrix in="SourceAlpha" type="matrix" values="0 0 0 0 0 0 0 0 0 0 0 0 0 0 0 0 0 0 127 0" result="hardAlpha"/><feOffset dy="4"/><feComposite in2="hardAlpha" operator="out"/><feColorMatrix type="matrix" values="0 0 0 0 0.898039 0 0 0 0 0.898039 0 0 0 0 0.898039 0 0 0 1 0"/><feBlend mode="normal" in2="BackgroundImageFix" result="effect1_dropShadow_869_41162"/><feBlend mode="normal" in="SourceGraphic" in2="effect1_dropShadow_869_41162" result="shape"/></filter><linearGradient id="paint0_linear_869_41162" x1="135.5" y1="242.789" x2="135.5" y2="468.775" gradientUnits="userSpaceOnUse"><stop stop-color="#26F663"/><stop offset="0.51278" stop-color="#268AFF"/><stop offset="0.942381" stop-color="#FC55FF"/></linearGradient><linearGradient id="paint1_linear_869_41162" x1="163.425" y1="195.34" x2="130.832" y2="370.514" gradientUnits="userSpaceOnUse"><stop stop-color="#26F663"/><stop offset="0.675633" stop-color="#268AFF"/><stop offset="1" stop-color="#FC55FF"/></linearGradient><clipPath id="clip0_869_41162"><rect x="71.9863" y="58" width="233.321" height="415" rx="9.856" fill="white"/></clipPath><clipPath id="clip1_869_41162"><rect width="25.6383" height="25.6383" fill="white" transform="translate(159.81 434.101)"/></clipPath><clipPath id="clip2_869_41162"><rect width="20.8163" height="20.1855" fill="white" transform="translate(122.481 436.828)"/></clipPath><clipPath id="clip3_869_41162"><rect width="25.6383" height="25.6383" fill="white" transform="translate(80.3306 434.101)"/></clipPath><clipPath id="clip4_869_41162"><rect width="25.6384" height="25.6383" fill="white" transform="translate(159.811 434.049)"/></clipPath><clipPath id="clip5_869_41162"><rect width="64" height="64" fill="white" transform="translate(101.5 285.286)"/></clipPath></defs></svg>